<?xml version="1.0" encoding="utf-8"?>
<!-- Generator: Adobe Illustrator 26.0.3, SVG Export Plug-In . SVG Version: 6.00 Build 0)  -->
<svg version="1.1" id="Calque_1" xmlns="http://www.w3.org/2000/svg" xmlns:xlink="http://www.w3.org/1999/xlink" x="0px" y="0px"
	 viewBox="0 0 800 200" style="enable-background:new 0 0 800 200;" xml:space="preserve">
<style type="text/css">
	.st0{fill-rule:evenodd;clip-rule:evenodd;fill:#F56B2A;}
	.st1{fill-rule:evenodd;clip-rule:evenodd;fill:#FDFF00;}
	.st2{fill-rule:evenodd;clip-rule:evenodd;fill:#0066CC;}
</style>
<g>
	<path class="st0" d="M575.1,145.75c0,5.74-4.65,10.39-10.39,10.39c-5.74,0-10.39-4.65-10.39-10.39V96.83
		c0-5.74,4.65-10.39,10.39-10.39c5.74,0,10.39,4.65,10.39,10.39V145.75z M578.13,61.45c0,7.41-6.01,13.42-13.42,13.42
		c-7.41,0-13.42-6.01-13.42-13.42s6.01-13.42,13.42-13.42C572.12,48.03,578.13,54.03,578.13,61.45z M607.38,96.33v1.7
		c2.51-4.06,6.05-7.2,10.64-9.4c4.58-2.2,9.86-3.31,15.82-3.31c4.41,0,7.98,0.8,10.7,2.4c2.72,1.6,4.82,3.68,6.29,6.23
		c1.47,2.55,2.44,5.34,2.92,8.37c0.47,3.03,0.71,5.97,0.71,8.82v44.8h-20.75v-39.48c0-4.49-0.84-7.76-2.53-9.79
		c-1.69-2.03-3.91-3.05-6.68-3.05c-1.47,0-2.96,0.3-4.47,0.91c-1.51,0.61-2.94,1.45-4.28,2.53c-1.34,1.08-2.57,2.36-3.7,3.82
		c-1.13,1.47-1.99,3.07-2.6,4.8v40.26h-20.75V96.07v-0.24c0.06-5,4.04-9.04,9.02-9.22h0.66c4.88,0.17,8.8,4.08,9,8.96
		C607.38,95.57,607.38,96.33,607.38,96.33z M230.21,107.17c-1.47-4.37-3.5-8.15-6.1-11.35c-2.59-3.2-5.69-5.73-9.27-7.59
		c-3.59-1.86-7.54-2.79-11.87-2.79c-5.19,0-9.66,1.1-13.42,3.31c-3.76,2.2-6.77,5.25-9.01,9.14V58.48h-0.01
		c0-0.03,0.01-0.06,0.01-0.09c0-5.72-4.64-10.36-10.36-10.36c-5.72,0-10.36,4.64-10.36,10.36c0,0.03,0,0.06,0,0.09h-0.02v97.57h0.59
		v0.01h20.04v-8.91c1.86,2.29,4.08,4.18,6.67,5.67c3.85,2.2,8.36,3.31,13.55,3.31c4.49,0,8.69-0.89,12.58-2.66
		c3.89-1.77,7.26-4.23,10.12-7.39c2.85-3.16,5.08-6.87,6.68-11.15c1.6-4.28,2.4-8.89,2.4-13.81
		C232.41,116.18,231.68,111.54,230.21,107.17L230.21,107.17z M209.98,128.05c-0.78,2.12-1.88,3.96-3.31,5.51
		c-1.43,1.56-3.16,2.79-5.19,3.7c-2.03,0.91-4.26,1.36-6.68,1.36c-2.85,0-5.58-0.84-8.17-2.53c-2.6-1.69-4.63-4-6.1-6.94v-14.27
		c1.47-3.37,3.57-6.18,6.29-8.43c2.72-2.25,5.73-3.37,9.01-3.37c2.25,0,4.3,0.48,6.16,1.43c1.86,0.95,3.48,2.25,4.86,3.89
		c1.38,1.64,2.44,3.57,3.18,5.77c0.73,2.21,1.1,4.52,1.1,6.94C211.15,123.62,210.76,125.93,209.98,128.05z M340.32,96.46v1.7
		c2.51-4.06,6.05-7.2,10.64-9.4c4.58-2.2,9.86-3.31,15.82-3.31c4.41,0,7.98,0.8,10.7,2.4c2.72,1.6,4.82,3.68,6.29,6.23
		c1.47,2.55,2.44,5.34,2.92,8.37c0.47,3.03,0.71,5.97,0.71,8.82v44.8h-20.75v-39.48c0-4.49-0.84-7.76-2.53-9.79
		c-1.69-2.03-3.91-3.05-6.68-3.05c-1.47,0-2.96,0.3-4.47,0.91c-1.52,0.61-2.94,1.45-4.28,2.53c-1.34,1.08-2.57,2.36-3.7,3.82
		c-1.13,1.47-1.99,3.07-2.59,4.8v40.26h-20.75V96.2v-0.24c0.06-5,4.04-9.04,9.02-9.22h0.66c4.88,0.17,8.8,4.08,9,8.96L340.32,96.46
		L340.32,96.46z M140.98,96.02c-3.11-3.24-6.92-5.82-11.41-7.72c-4.5-1.9-9.64-2.85-15.43-2.85c-5.79,0-10.96,0.95-15.5,2.85
		c-4.54,1.9-8.36,4.5-11.48,7.78c-3.11,3.29-5.49,7.11-7.13,11.48c-1.64,4.37-2.46,9.01-2.46,13.94c0,3.98,0.62,7.8,1.86,11.48
		c-1.01,1.49-2.37,2.75-4.11,3.75c-2.16,1.26-4.54,1.88-7.13,1.88c-2.07,0-4.04-0.43-5.9-1.3c-1.86-0.86-3.48-2.08-4.86-3.63
		c-0.62-0.69-1.66-2.15-1.66-7.58V58.44c0-5.77-4.64-10.41-10.36-10.41c-5.71,0-10.34,4.62-10.36,10.32L35,131.71
		c0,6.13,3.72,10.96,6.39,13.72c3.16,3.24,7,5.84,11.54,7.78c1.5,0.64,3.07,1.17,4.7,1.6c3.3,0.87,6.85,1.32,10.67,1.32
		c7.87,0,14.55-1.69,20.04-5.06c1.01-0.62,1.95-1.28,2.85-1.96c2.27,1.66,4.77,3.09,7.57,4.23c4.54,1.86,9.66,2.79,15.37,2.79
		c7.87,0,14.61-1.69,20.23-5.06c5.62-3.37,9.77-7.74,12.45-13.1l-17.64-4.93c-0.57,1.5-1.47,2.81-2.69,3.93
		c-0.83,0.76-1.82,1.44-2.95,2.03c-2.81,1.47-5.73,2.2-8.75,2.2c-3.81,0-7.2-1.19-10.18-3.56c-2.98-2.38-4.65-5.86-4.99-10.44h50.32
		c0.17-0.86,0.3-1.88,0.39-3.05c0.08-1.17,0.13-2.36,0.13-3.57c0-4.67-0.8-9.12-2.4-13.36C146.45,103,144.09,99.26,140.98,96.02
		L140.98,96.02z M99.22,114.37c0.43-4.23,1.97-7.63,4.6-10.18c2.64-2.55,5.99-3.82,10.05-3.82c3.98,0,7.31,1.25,9.99,3.76
		c2.68,2.51,4.24,5.92,4.67,10.25C128.53,114.37,99.22,114.37,99.22,114.37z M540.69,107.43c-1.64-4.28-4.02-8.04-7.13-11.28
		c-3.11-3.24-6.92-5.84-11.41-7.78c-4.5-1.94-9.64-2.92-15.43-2.92c-5.79,0-10.96,0.97-15.5,2.92c-4.54,1.95-8.37,4.54-11.48,7.78
		c-3.11,3.24-5.47,7-7.07,11.28c-1.6,4.28-2.4,8.75-2.4,13.42c0,4.67,0.8,9.14,2.4,13.42c1.6,4.28,3.96,8.04,7.07,11.28
		c3.11,3.24,6.94,5.82,11.48,7.72c4.54,1.9,9.7,2.85,15.5,2.85c5.79,0,10.96-0.95,15.5-2.85c4.54-1.9,8.36-4.47,11.48-7.72
		c3.11-3.24,5.47-7,7.07-11.28c1.6-4.28,2.4-8.75,2.4-13.42C543.16,116.18,542.33,111.71,540.69,107.43L540.69,107.43z
		 M520.59,128.05c-0.78,2.21-1.84,4.09-3.18,5.64c-1.34,1.55-2.92,2.77-4.73,3.63c-1.82,0.86-3.81,1.3-5.97,1.3
		c-4.41,0-8.04-1.62-10.9-4.86c-2.85-3.24-4.28-7.54-4.28-12.91c0-2.59,0.39-4.99,1.17-7.2c0.78-2.2,1.83-4.08,3.18-5.64
		c1.34-1.56,2.94-2.77,4.8-3.63c1.86-0.86,3.87-1.3,6.03-1.3c4.32,0,7.91,1.62,10.76,4.86c2.85,3.24,4.28,7.54,4.28,12.9
		C521.76,123.45,521.37,125.85,520.59,128.05z M302.06,96.15c-3.11-3.24-6.92-5.84-11.41-7.78c-4.5-1.94-9.64-2.92-15.43-2.92
		c-5.79,0-10.96,0.97-15.5,2.92c-4.54,1.95-8.36,4.54-11.48,7.78c-3.11,3.24-5.47,7-7.07,11.28c-1.6,4.28-2.4,8.75-2.4,13.42
		c0,4.67,0.8,9.14,2.4,13.42c1.6,4.28,3.96,8.04,7.07,11.28c3.11,3.24,6.94,5.82,11.48,7.72c4.54,1.9,9.71,2.85,15.5,2.85
		c5.79,0,10.96-0.95,15.5-2.85c4.54-1.9,8.36-4.47,11.48-7.72c3.11-3.24,5.47-7,7.07-11.28c1.6-4.28,2.4-8.75,2.4-13.42
		c0-4.67-0.82-9.14-2.46-13.42C307.55,103.15,305.17,99.39,302.06,96.15z M289.09,128.05c-0.78,2.21-1.84,4.09-3.18,5.64
		c-1.34,1.55-2.92,2.77-4.73,3.63c-1.81,0.86-3.81,1.3-5.97,1.3c-4.41,0-8.04-1.62-10.89-4.86c-2.85-3.24-4.28-7.54-4.28-12.91
		c0-2.59,0.39-4.99,1.17-7.2c0.78-2.2,1.84-4.08,3.18-5.64c1.34-1.56,2.94-2.77,4.8-3.63c1.86-0.86,3.87-1.3,6.03-1.3
		c4.32,0,7.91,1.62,10.76,4.86c2.85,3.24,4.28,7.54,4.28,12.9C290.26,123.45,289.87,125.85,289.09,128.05L289.09,128.05z
		 M440.57,136.74c-2.16,1.26-4.54,1.88-7.13,1.88c-2.07,0-4.04-0.43-5.9-1.3c-1.86-0.86-3.48-2.08-4.86-3.63
		c-1.39-1.56-2.46-3.44-3.24-5.64c-0.78-2.2-1.17-4.65-1.17-7.33c0-5.36,1.45-9.64,4.35-12.84c2.9-3.2,6.5-4.8,10.83-4.8
		c5.19,0,9.12,2.16,11.8,6.48l20.23-6.09c-2.68-5.36-6.7-9.71-12.06-13.03c-5.36-3.33-11.98-4.99-19.84-4.99
		c-5.79,0-10.96,0.95-15.5,2.85c-4.54,1.9-8.36,4.48-11.48,7.72c-3.11,3.24-5.49,7-7.13,11.28c-1.64,4.28-2.46,8.75-2.46,13.42
		c0,4.67,0.82,9.14,2.46,13.42c1.64,4.28,4.04,8.04,7.2,11.28c3.16,3.24,7,5.84,11.54,7.78c4.54,1.95,9.66,2.92,15.37,2.92
		c7.87,0,14.55-1.69,20.04-5.06c5.49-3.37,9.49-7.69,12-12.97l-20.23-6.23C444.33,133.87,442.73,135.49,440.57,136.74L440.57,136.74
		z"/>
	<g id="SCAMARK_00000098909776382692112820000014741021574943577749_">
		<g id="Engagements-Marque-repère" transform="translate(-603.000000, -3121.000000)">
			<g id="bandeau-SCAMARK" transform="translate(60.000000, 3080.000000)">
				<g id="SCAMARK">
					<g id="Logo-eco-_x2B_" transform="translate(543.000000, 33.000000)">
						<g id="Group-52" transform="translate(0.000000, 8.250000)">
							<path id="Bleu" class="st1" d="M748.03,48.34c0.57-3.21,2.16-3.55,3.2-3.44c1.05,0.11,1.91,0.88,1.69,3.27
								c-0.05,0.63-0.26,2.47-0.52,4.75c4.14-1.3,7.68-2.27,8.55-2.1c1.83,0.09,2.82,1.21,2.76,2.91c-0.05,1.44-1.59,2.57-2.25,2.44
								c-0.65-0.13-1.85-0.2-3.1,0.08c-1.57,0.34-3.82,1.18-6.58,2.02c-0.39,3.41-0.78,6.62-0.92,7.76
								c-0.2,1.62-0.28,4.04-2.84,4.24c-2.16,0.17-2.27-2.82-2.07-4.24l0,0l0.71-6.07c-0.01,0-0.01-0.01-0.01-0.01
								c-2.09,0.72-3.8,1.37-4.73,1.73c-1.43,0.56-2.5-0.51-2.75-1.76c-0.21-1.08-0.04-2.07,1.73-2.8c1.85-0.77,4.06-1.63,6.37-2.46
								l0,0L748.03,48.34z"/>
							<path id="Jaune" class="st2" d="M688.47,48.12c0.76,0,1.53,0.06,2.28,0.16c2.1,0.31,3.57,1.05,4.36,2.21
								c0.59,0.86,0.77,1.93,0.51,3.02c-0.32,1.37-1.2,2.1-2.62,2.19l-0.27,0.01c-0.63,0-1.36-0.12-2.19-0.36
								c-0.67-0.19-1.42-0.29-2.2-0.29c-2.62,0-6.2,1.18-8.79,4.41l-0.28,0.37h7.19c3.47,0,3.7,2.05,3.78,2.82
								c0.06,0.5-0.19,1.12-0.63,1.62c-0.6,0.67-1.5,1.07-2.55,1.13l-0.29,0.01l-9.99,0.02c-0.07,0.31-0.13,0.63-0.19,0.96
								l-0.04,0.58l-0.03,0.58l-0.03,0.44l-0.01,0.1l-0.01,0.1l7.39,0c2.72,0.01,3.11,1.74,3.16,2.28c0.08,0.83-0.18,1.66-0.73,2.27
								c-0.44,0.49-1.27,1.07-2.73,1.15l-0.32,0.01h-6.52c0.82,2.74,2.68,4.18,5.56,4.28l0.35,0.01c2.01,0,4.48-0.67,6.61-1.8
								c0.43-0.23,0.93-0.36,1.39-0.36c0.78,0,2.15,0.36,2.51,2.76c0.13,0.85-0.21,1.77-0.97,2.65c-1.77,2.05-5.48,3.61-8.76,3.73
								l-0.41,0.01l-0.17,0c-3.31-0.05-6.49-1.04-8.93-2.79c-2.67-1.91-4.41-4.66-5.05-8.01l-0.08-0.48h-0.52
								c-1.15,0-2.09-0.38-2.68-1.08c-0.46-0.54-0.65-1.24-0.54-1.92c0.3-1.71,1.4-2.61,3.27-2.7l0.3-0.01h0.19
								c0.07-0.48,0.14-0.92,0.22-1.34c0.06-0.3,0.13-0.61,0.2-0.92l0.12-0.47l-1.16,0c-2.96,0-3.47-1.62-3.5-2.58
								c-0.02-0.64,0.32-1.4,0.88-1.99c0.43-0.44,1.15-0.96,2.24-1.04l0.31-0.01h3.26C674.91,52.6,681.46,48.12,688.47,48.12z
								 M715.44,53.08c4.64,1.23,2.66,8.39-1.98,7.16c-6.32-1.68-12.76,3.96-12.76,10.47c0,4.87,6.86,8.89,10.79,5.24
								c3.51-3.25,8.79,1.99,5.27,5.25c-7.83,7.26-21.82,2.14-23.34-8.35C691.67,60.74,703.75,49.97,715.44,53.08z M750.93,43.61
								c0.15,0,0.3,0.01,0.44,0.02c0.97,0.1,3.18,0.76,2.83,4.65c-0.04,0.45-0.15,1.48-0.3,2.85c4.7-1.42,6.14-1.6,6.82-1.6
								c0.14,0,0.27,0.01,0.39,0.03c2.45,0.15,3.98,1.8,3.89,4.21c-0.06,1.98-1.93,3.67-3.41,3.67c-0.12,0-0.25-0.01-0.36-0.04
								c-0.13-0.03-0.5-0.09-1.05-0.09c-0.51,0-1.04,0.06-1.52,0.16c-0.94,0.21-2.19,0.62-3.65,1.09c-0.63,0.2-1.31,0.43-2.04,0.66
								c-0.34,2.9-0.66,5.58-0.8,6.77l-0.02,0.17l-0.04,0.34c-0.17,1.54-0.54,4.74-3.96,5c-0.09,0.01-0.18,0.01-0.28,0.01
								c-0.88,0-1.64-0.34-2.2-0.98l-0.01-0.01c-1.42,8.12-7.1,13.53-14.07,13.72c-8.37,0.23-14.63-6.83-13.94-14.96
								c0.77-9.12,6.79-16.03,15.38-16.53c3.26-0.19,6.09,0.92,8.26,2.83c1.25-0.51,2.6-1.03,3.98-1.55l0.86-0.32l0.66-5.61
								C747.48,44.2,749.68,43.61,750.93,43.61z M733.31,60.43l-0.29,0.01c-4.57,0.29-7.53,5.86-7.67,9.96
								c-0.13,3.51,1.86,6.52,6.24,6.18c4.3-0.34,7.04-5.72,6.96-10.18c-0.06-3.14-2.04-5.81-4.95-5.96L733.31,60.43z M746.23,69.05
								l0.06,0.13c0,0,0,0.01,0.01,0.01c0.01,0.02,0.01,0.03,0.02,0.04c0.02,0.04,0.04,0.08,0.06,0.12c0.02,0.04,0.04,0.07,0.06,0.1
								c0.01,0.02,0.02,0.04,0.03,0.05c0.09,0.13,0.18,0.24,0.29,0.34l0.05,0.04l0,0l0.02,0.01c0.02,0.01,0.03,0.03,0.05,0.04
								c0.03,0.02,0.05,0.04,0.08,0.06c0.02,0.01,0.03,0.02,0.05,0.03c0.03,0.02,0.06,0.04,0.1,0.05c0.02,0.01,0.04,0.02,0.06,0.03
								c0.03,0.01,0.07,0.03,0.1,0.04c0.15,0.06,0.32,0.09,0.51,0.1l0.05,0l0,0c0.07,0,0.14,0,0.22-0.01
								c2.56-0.2,2.64-2.62,2.84-4.24c0.14-1.14,0.53-4.35,0.92-7.76c2.76-0.84,5.01-1.67,6.58-2.02c1.25-0.27,2.44-0.21,3.1-0.08
								l0.11,0.01l0,0l0.12-0.01c0.73-0.11,1.97-1.15,2.01-2.44c0.06-1.69-0.93-2.82-2.76-2.91l-0.1-0.01l0,0l-0.12-0.01
								c-1.1-0.02-4.23,0.84-7.91,1.99l-0.43,0.13l0,0c0.26-2.28,0.46-4.12,0.52-4.75c0.22-2.39-0.64-3.16-1.69-3.27
								c-0.07-0.01-0.15-0.01-0.23-0.02l-0.12,0c-1.02,0.01-2.34,0.59-2.85,3.46l-0.74,6.31c-0.7,0.25-1.4,0.51-2.08,0.76
								c-0.22,0.08-0.44,0.17-0.66,0.25c-0.39,0.15-0.77,0.3-1.14,0.44l-0.27,0.11l0,0l-0.09,0.04c-0.27,0.1-0.53,0.21-0.78,0.31
								c-0.47,0.19-0.91,0.37-1.34,0.55c-1.77,0.73-1.94,1.72-1.73,2.8c0.24,1.25,1.32,2.32,2.75,1.76c0.76-0.3,2.03-0.78,3.6-1.33
								c0.2-0.07,0.41-0.15,0.63-0.22l0.07-0.02l0,0l0.44-0.15l0,0c0,0,0,0,0.01,0.01l-0.71,6.07
								C745.86,66.81,745.84,68.1,746.23,69.05L746.23,69.05z"/>
						</g>
					</g>
				</g>
			</g>
		</g>
	</g>
</g>
</svg>
