<?xml version="1.0" encoding="UTF-8"?>
<svg width="69px" height="40px" viewBox="0 0 69 40" version="1.1" xmlns="http://www.w3.org/2000/svg" xmlns:xlink="http://www.w3.org/1999/xlink">
    <!-- Generator: sketchtool 59.1 (101010) - https://sketch.com -->
    <title>1A5FD78F-BCE6-4B22-ABFA-EA27BC5153FE</title>
    <desc>Created with sketchtool.</desc>
    <g id="SCAMARK" stroke="none" stroke-width="1" fill="none" fill-rule="evenodd">
        <g id="Engagements-Marque-repère" transform="translate(-603.000000, -3121.000000)">
            <g id="bandeau-SCAMARK" transform="translate(60.000000, 3080.000000)">
                <g id="SCAMARK">
                    <g id="Logo-eco-+" transform="translate(543.000000, 33.000000)">
                        <g id="Group-52" transform="translate(0.000000, 8.250000)">
                            <path d="M9.13178916,30.4865386 C12.8160723,30.5851913 49.7481463,30.815118 51.7772216,30.8545791 C54.0866973,30.8995647 54.2876246,30.6909471 55.3712062,31.4115067 C55.8794652,31.7498198 56.1503606,34.4897353 55.843821,36.4827838 C55.7326642,37.2070265 56.0117445,38.7465354 55.265594,39.1514063 C54.5957483,39.5149745 53.0416642,39.2966231 52.0444205,39.1829751 C50.5526476,39.0130293 47.2847407,39.3005692 46.0298032,39.2816279 C44.0994754,39.2521636 5.32869222,39.2013903 4.10596645,39.150617 C2.88324069,39.1001068 3.61090906,33.7078795 3.52113865,32.5816598 C3.45618712,31.7658673 3.43110421,30.7422465 4.56405957,30.6288616 C4.56405957,30.6288616 6.04632742,30.4039334 9.13178916,30.4865386 Z M57.0114172,3.49580596 C57.4021825,1.29913823 58.4881404,1.06789621 59.2018152,1.14155692 C59.9168101,1.21600686 60.5058624,1.74478555 60.3572131,3.37821189 C60.3199848,3.81096859 60.1789925,5.06846221 60.0039402,6.62822784 C62.8367246,5.73667012 65.2565652,5.07398677 65.850106,5.19289621 C67.1039874,5.25366629 67.7804338,6.02052695 67.738981,7.17936783 C67.7062412,8.16694754 66.6495907,8.93486049 66.2028509,8.84567841 C65.755319,8.7578117 64.9413126,8.71098453 64.0840052,8.89881936 C63.0075524,9.13453364 61.469046,9.70251036 59.5830754,10.2791685 C59.3135001,12.6094778 59.0515818,14.8050933 58.9541545,15.5816877 C58.8184427,16.6918599 58.7651085,18.3455429 57.0148496,18.4807629 C55.534958,18.5994093 55.4631417,16.5529568 55.5999096,15.5816877 L55.5999096,15.5816877 L56.0849338,11.4316956 C56.0804453,11.4306433 56.0799172,11.4280126 56.0799172,11.4280126 C54.6533598,11.9210132 53.4839682,12.3619252 52.8447501,12.6110563 C51.8678369,12.9930397 51.1327756,12.265114 50.9656443,11.4088082 C50.8233318,10.6711488 50.9389772,9.99478555 52.1516698,9.49415577 C53.4166404,8.96642937 54.9295358,8.37977439 56.5068547,7.81206075 L56.5068547,7.81206075 Z" id="Bleu" fill="#FDFF00"></path>
                            <path d="M18.5126648,33.1995416 C18.7170245,33.1995416 18.8889084,33.2855668 19.0238281,33.4552495 C19.1429059,33.6057278 19.2405972,33.7814613 19.3145258,33.9777144 C19.3871342,34.1702846 19.4386202,34.3678532 19.4676635,34.5648956 C19.4967069,34.7614118 19.5107005,34.9037349 19.5107005,35.0005461 C19.5107005,35.1623366 19.4922184,35.3754265 19.4539339,35.6527065 C19.4151214,35.928408 19.342249,36.2059511 19.2369008,36.4766542 C19.1291763,36.7539342 18.9773587,36.9956991 18.7854084,37.1953723 C18.5815768,37.4081991 18.3201865,37.5160595 18.0083663,37.5160595 C17.962601,37.5160595 17.9122592,37.5091611 17.8580449,37.4955982 L17.7739071,37.4702846 L17.7630819,37.4666016 C17.7802439,37.6315489 17.8021584,37.7972856 17.8288255,37.9622329 C17.8671099,38.1984734 17.8863842,38.4376076 17.8863842,38.6730588 C17.8863842,38.7309351 17.867902,38.8177495 17.7807719,38.901407 C17.712652,38.9663863 17.6268421,39.0005859 17.5323191,39.0005859 C17.4494135,39.0005859 17.298388,38.9674386 17.2199709,38.744878 C17.1753497,38.6186025 17.1404977,38.4747011 17.1164709,38.3165936 C17.0927082,38.1595384 17.0779224,38.0045879 17.0731699,37.8564772 C17.0686814,37.7165218 17.0620806,37.6178691 17.0536316,37.5631497 C17.0164033,37.311651 16.9672936,37.0359495 16.9076227,36.742622 C16.8466316,36.4448222 16.7861686,36.1409718 16.7254416,35.8318599 C16.6649786,35.5259048 16.6129645,35.2178452 16.5701916,34.9158363 C16.5276827,34.6146165 16.5060321,34.3347058 16.5060321,34.0853117 C16.5060321,33.9945512 16.5424684,33.911946 16.6116444,33.8456513 C16.6805564,33.7796197 16.7690066,33.7464724 16.8740908,33.7464724 C16.9665015,33.7464724 17.0950844,33.7896165 17.1835347,33.9945512 C17.2384531,34.121879 17.280962,34.2670958 17.3102694,34.4270448 C17.315814,34.4575614 17.3210946,34.4875518 17.3258472,34.5180684 C17.3826138,34.3481226 17.4520538,34.178703 17.5331112,34.0121771 C17.6360832,33.8009287 17.7657222,33.6144093 17.9183319,33.4576172 C18.0849352,33.286356 18.2850704,33.1995416 18.5126648,33.1995416 Z M35.6249112,31.7368766 C35.700952,31.7368766 35.7746166,31.7571333 35.8440566,31.7971205 C35.9314508,31.8481569 35.9787122,31.9270791 35.9787122,32.0196811 C35.9787122,32.3222162 35.9549495,32.6305389 35.907688,32.9362309 L35.8571592,33.3072967 L35.821086,33.6775733 L35.9478207,33.6554751 C36.0761395,33.6333769 36.1793755,33.6236432 36.2691459,33.6236432 C36.5976,33.6236432 36.623211,33.8483084 36.623211,33.9174968 C36.623211,33.9795823 36.6002403,34.0929672 36.4476306,34.1576834 C36.3705337,34.1905676 36.2802352,34.2176642 36.1799036,34.2373948 C36.0819482,34.2568622 35.9839929,34.2708052 35.8863015,34.2781712 C35.8437926,34.2818543 35.8060362,34.2852742 35.7738245,34.2884311 C35.7241867,34.824839 35.6988398,35.3644037 35.6988398,35.8934455 C35.6988398,36.1186368 35.7146816,36.3401451 35.7466293,36.5516566 C35.778313,36.7639573 35.8308551,36.9807302 35.9029355,37.1961878 C35.9269622,37.2664286 35.9731676,37.3474554 36.0402314,37.4376897 C36.1310579,37.5597561 36.175151,37.6718256 36.175151,37.779949 C36.175151,37.9709407 36.0478883,38.0853779 35.8348156,38.0853779 C35.7872901,38.0853779 35.735012,38.0695934 35.6753411,38.0380246 C35.6417212,38.0203109 35.6143207,38.0041172 35.5932178,37.9899112 L35.5662964,37.9701515 L35.5375171,37.9367411 C35.4250401,37.7347003 35.3321013,37.5555469 35.261077,37.4050686 C35.1874125,37.2488026 35.1330222,37.0927997 35.0984342,36.9399538 C35.0646383,36.7897385 35.0424597,36.6316311 35.0326906,36.4693144 C35.0234495,36.31147 35.018961,36.1233721 35.018961,35.9047577 C35.018961,35.621427 35.0208092,35.3430947 35.0260898,35.0710762 C35.0297862,34.8466741 35.0416676,34.6156952 35.0614699,34.3826116 C35.0150005,34.3923453 34.9666829,34.4031314 34.9173092,34.4152328 C34.6873385,34.4710045 34.5011969,34.4741614 34.3575643,34.4073406 C34.260137,34.3623549 34.2065388,34.2755405 34.2065388,34.1632079 C34.2065388,34.0945456 34.2387505,33.9972082 34.3921523,33.9248629 C34.4790184,33.8838233 34.57935,33.8509391 34.6899788,33.8267363 C34.795063,33.804375 34.9001472,33.7851706 35.0060235,33.7699123 C35.0583015,33.7620201 35.1039788,33.7567586 35.1425273,33.7525494 C35.1731548,33.4757956 35.1926931,33.2019356 35.2011421,32.9375462 C35.2103832,32.6326435 35.2388985,32.3222162 35.2858959,32.0136304 C35.3138832,31.8376339 35.4374495,31.7368766 35.6249112,31.7368766 Z M49.4182136,33.3332095 C49.627854,33.3332095 49.7936652,33.431073 49.8976932,33.615751 C49.9871996,33.7738584 50.0571677,33.9790561 50.1065415,34.2242411 C50.154067,34.462323 50.1875989,34.7282908 50.2066091,35.0153045 C50.2250912,35.2962675 50.2483259,35.5685491 50.2757851,35.8310969 C50.3035083,36.0896987 50.3423208,36.3230453 50.3924866,36.5242969 C50.4368437,36.7050287 50.5091881,36.8328827 50.6079356,36.9057541 C50.636979,36.9286416 50.6773756,36.9557382 50.732558,36.9894117 C50.7977736,37.0291358 50.8595568,37.0728061 50.9194917,37.1204225 C50.9783705,37.1675128 51.0322328,37.2140768 51.0813425,37.2611671 C51.1267557,37.3045743 51.1869547,37.3724474 51.1869547,37.4561049 C51.1869547,37.6405198 51.0652366,37.7504847 50.8611409,37.7504847 C50.5751958,37.7504847 50.3428489,37.6507797 50.171493,37.4540003 C50.0120185,37.2716901 49.886604,37.0383434 49.7981537,36.7600112 C49.7123437,36.4895711 49.6492404,36.1912452 49.6114841,35.8737149 C49.5739917,35.5601307 49.5412519,35.2620679 49.5132647,34.977948 C49.4860695,34.7019834 49.4533297,34.4570615 49.4163654,34.2505485 C49.403956,34.1803077 49.3902264,34.1255883 49.3764968,34.0827073 C49.3720083,34.0979656 49.3675198,34.1140131 49.3627672,34.1319021 C49.326067,34.2658068 49.291479,34.4294388 49.2597953,34.6175367 C49.2270555,34.8114222 49.1922034,35.0213552 49.1547111,35.2478619 C49.1172187,35.4762101 49.0773501,35.6987707 49.0353693,35.9155437 C48.9931244,36.1315274 48.9532557,36.3312006 48.9162915,36.5135108 C48.886588,36.6581358 48.8545083,36.7776042 48.8189384,36.8760227 L48.7821639,36.9675765 L48.748632,37.0107207 C48.5783323,37.1467299 48.3459853,37.1146349 48.1857187,36.858927 C48.1067736,36.7329145 48.0344292,36.5703348 47.9710619,36.3756601 C47.9095427,36.1875622 47.8559445,35.9757876 47.8129075,35.7471763 C47.7709267,35.521985 47.7350185,35.3044228 47.7070312,35.0939636 C47.679044,34.8837675 47.6576575,34.6954066 47.6436639,34.5301961 C47.6294062,34.3620918 47.6222774,34.2431824 47.6222774,34.1745201 C47.6222774,34.0940195 47.6521129,34.0190434 47.7083514,33.957221 C47.7677583,33.8914525 47.8535682,33.8580421 47.9620848,33.8580421 C48.1123182,33.8580421 48.2250593,33.9795823 48.2971397,34.2195057 C48.3552264,34.4110236 48.3990555,34.6359518 48.4275708,34.8871875 L48.4549415,35.1399688 L48.5006083,34.8585782 C48.5174072,34.7631481 48.5358233,34.6667315 48.5558897,34.5699203 C48.5989267,34.3602503 48.6549011,34.1645233 48.7219649,33.9882637 C48.791405,33.8051642 48.8787991,33.6528444 48.9807149,33.5349872 C49.0966244,33.4010826 49.2439534,33.3332095 49.4182136,33.3332095 Z M33.0338732,33.3332095 C33.2435135,33.3332095 33.4090607,33.431073 33.5130888,33.615751 C33.6025952,33.7738584 33.6728273,33.9790561 33.721937,34.2242411 C33.7694625,34.462323 33.8032584,34.7282908 33.8220046,35.0153045 C33.8404867,35.2962675 33.8637214,35.5685491 33.8914446,35.8310969 C33.9189038,36.0896987 33.9579804,36.3230453 34.0078821,36.5242969 C34.0522393,36.7050287 34.1245837,36.8328827 34.2233311,36.9057541 C34.2526385,36.9286416 34.2927712,36.9557382 34.3479536,36.9894117 C34.4131691,37.0291358 34.4752163,37.0728061 34.5348872,37.1204225 C34.5940301,37.1675128 34.6478923,37.2140768 34.696738,37.2611671 C34.7421513,37.3045743 34.8026143,37.3724474 34.8026143,37.4561049 C34.8026143,37.6405198 34.6808962,37.7504847 34.4765365,37.7504847 C34.1905913,37.7504847 33.9585084,37.6507797 33.7868885,37.4540003 C33.6276781,37.2716901 33.5019995,37.0383434 33.4135492,36.7600112 C33.3277393,36.4895711 33.2649,36.1912452 33.2268796,35.8737149 C33.1893872,35.5601307 33.1566474,35.2620679 33.1286602,34.977948 C33.1014651,34.7019834 33.0687253,34.4570615 33.031761,34.2505485 C33.0193515,34.1803077 33.0056219,34.1255883 32.9918923,34.0827073 C32.9874038,34.0979656 32.9829153,34.1140131 32.9781628,34.1319021 C32.9414625,34.2658068 32.9068745,34.4294388 32.8751908,34.6175367 C32.842451,34.8114222 32.807599,35.0213552 32.7703707,35.2478619 C32.7326143,35.4762101 32.6930097,35.6987707 32.6507648,35.9155437 C32.6085199,36.1315274 32.5686513,36.3312006 32.531687,36.5135108 C32.5019835,36.6581358 32.4699038,36.7776042 32.434334,36.8760227 L32.3975594,36.9675765 L32.3640276,37.0107207 C32.1937278,37.1467299 31.9613809,37.1146349 31.8013783,36.858927 C31.7221691,36.7329145 31.6498247,36.5703348 31.5864574,36.3756601 C31.5249383,36.1875622 31.4716041,35.9757876 31.4285671,35.7471763 C31.3863222,35.521985 31.3506781,35.3044228 31.3224268,35.0939636 C31.2947036,34.8837675 31.2730531,34.6954066 31.2590594,34.5301961 C31.2448018,34.3620918 31.237673,34.2431824 31.237673,34.1745201 C31.237673,34.0940195 31.2675084,34.0190434 31.3237469,33.957221 C31.3834179,33.8914525 31.4689638,33.8580421 31.5774804,33.8580421 C31.7277138,33.8580421 31.8404548,33.9795823 31.9127992,34.2195057 C31.9706219,34.4110236 32.014451,34.6359518 32.0429663,34.8871875 L32.057224,35.0147455 L32.0699415,35.1399688 L32.1162348,34.8585782 C32.1330008,34.7631481 32.1513509,34.6667315 32.1712852,34.5699203 C32.2143222,34.3602503 32.2702967,34.1645233 32.3373605,33.9882637 C32.4070645,33.8051642 32.4941946,33.6528444 32.5961105,33.5349872 C32.7120199,33.4010826 32.859349,33.3332095 33.0338732,33.3332095 Z M7.75724579,31.4916916 C8.00437844,31.4916916 8.19316033,31.5311527 8.33415268,31.6132318 C8.41160166,31.6584805 8.50125472,31.7072369 8.60178193,31.7587215 L8.76056212,31.837897 L8.79039758,31.8526291 L8.90973941,32.0425686 L8.90973941,32.0757159 C8.90973941,32.1285937 8.89284145,32.2080421 8.81152003,32.2869643 C8.72009,32.3762591 8.58462613,32.4083434 8.43605464,32.3560477 L8.36081977,32.3227423 L8.17177385,32.2222481 C8.10708635,32.1880485 8.03447793,32.1564796 7.9565889,32.1285937 C7.88530064,32.1036017 7.80424324,32.0907111 7.71552895,32.0907111 C7.53810038,32.0907111 7.37149707,32.1280676 7.22020753,32.2019914 C7.06363737,32.2782828 6.92528533,32.3745679 6.80911186,32.4876897 C6.69373048,32.5997592 6.60316798,32.7273501 6.53927258,32.8662532 C6.47669732,33.0027886 6.44501365,33.1348517 6.44501365,33.2590226 C6.44501365,33.4776371 6.5273912,33.6512659 6.69663482,33.7891167 C6.88145625,33.9403842 7.12013992,34.071132 7.40608508,34.1779401 C7.69942309,34.2876419 8.02048431,34.38761 8.36055574,34.4754767 C8.70722793,34.5651849 9.03594605,34.6656792 9.33720497,34.7745918 C9.64585676,34.8861352 9.90566288,35.0192506 10.1092305,35.169992 C10.3355047,35.3375702 10.450094,35.5588154 10.450094,35.8266247 C10.450094,36.1181107 10.3299601,36.3825 10.0928606,36.6124267 C9.87001875,36.8286735 9.59569094,37.0144037 9.27727003,37.1643559 C8.96280957,37.3129927 8.62247411,37.427956 8.26576875,37.5076674 C7.90879936,37.5871158 7.58668202,37.6276291 7.30918584,37.6276291 C7.1354537,37.6276291 6.94218329,37.6084247 6.73491926,37.5697529 C6.52659911,37.5313441 6.33174452,37.4721524 6.15590013,37.3945456 C5.97477513,37.314308 5.81899707,37.2082892 5.69279043,37.0791199 C5.55470242,36.9391645 5.48473431,36.7726387 5.48473431,36.5855931 C5.48473431,36.4979895 5.52143457,36.3885507 5.59694732,36.250963 C5.66480319,36.1273182 5.74823686,36.001832 5.84540013,35.8779241 C5.9417713,35.7553316 6.03972666,35.6461559 6.13688992,35.5532908 C6.25491161,35.4399059 6.35181084,35.3872911 6.44105319,35.3872911 C6.59181467,35.3872911 6.6731361,35.450955 6.71485293,35.5046221 C6.75040906,35.5510985 6.77411314,35.6011995 6.78596518,35.6546133 L6.79485421,35.7371795 L6.79485421,35.7750622 L6.77241161,35.8055788 C6.67604043,35.9360635 6.55511441,36.0770711 6.41253788,36.2246556 C6.29293202,36.3485635 6.23484528,36.4701036 6.23484528,36.5966422 C6.23484528,36.6718814 6.26468074,36.7294946 6.32910421,36.7781633 C6.41042564,36.8399857 6.51049324,36.8878651 6.62666671,36.9210124 C6.7507611,36.9562643 6.88304043,36.9812564 7.02007232,36.9951993 C7.15895242,37.0096684 7.27987844,37.0170344 7.37941798,37.0170344 C7.59460293,37.0170344 7.84331977,36.9878332 8.1187037,36.93022 C8.39355957,36.8726068 8.65679809,36.7886862 8.90076237,36.6808259 C9.13997411,36.5748071 9.34591798,36.443007 9.51331339,36.2885826 C9.66724324,36.1465226 9.7419639,35.987889 9.7419639,35.8042634 C9.7419639,35.6848278 9.66539503,35.5845966 9.50776875,35.4977822 C9.31951492,35.3946572 9.07687079,35.2960045 8.78696518,35.205507 C8.48940268,35.112905 8.17098176,35.0203029 7.83170242,34.9277009 C7.48714247,34.8337835 7.15921645,34.7190832 6.85663737,34.5872832 C6.54719349,34.4523262 6.28633125,34.2855373 6.08091543,34.0905995 C5.86203406,33.882771 5.75087717,33.6183817 5.75087717,33.3037452 C5.75087717,33.08592 5.80421135,32.8662532 5.90955957,32.6502695 C6.01358763,32.4374426 6.15880446,32.2435571 6.34124962,32.0749267 C6.52184656,31.9073485 6.73465523,31.7671301 6.97386696,31.6582175 C7.21677513,31.5474633 7.48027768,31.4916916 7.75724579,31.4916916 Z M20.2590689,31.7014931 L20.3815791,31.7206975 L20.5766977,31.8903803 L20.6168304,31.9977144 C20.6168304,32.3107725 20.6147181,32.6204106 20.6099656,32.9258394 C20.605213,33.230216 20.6031008,33.5385387 20.6031008,33.8508076 C20.6031008,34.4056306 20.6147181,34.965452 20.6379528,35.5147505 C20.6530906,35.8784941 20.6820753,36.2473823 20.7243593,36.616972 L20.7976913,37.1713273 L20.8085166,37.2415681 L20.4956403,37.4601826 L20.4589401,37.4601826 C20.3657372,37.4601826 20.2360982,37.4149338 20.1484401,37.1978978 C20.0932577,37.0626778 20.0496926,36.8916797 20.0156327,36.6764852 C19.9823648,36.4702352 19.958338,36.234784 19.9443444,35.9780238 C19.9300867,35.7236312 19.9205816,35.4710802 19.9160931,35.2203707 C19.9129247,35.0537572 19.9108125,34.892639 19.9097564,34.7374838 L19.9089643,33.9623509 L19.8949707,32.9818742 C19.8949707,32.9342578 19.8970829,32.8511264 19.9020995,32.7298493 C19.906588,32.6083092 19.9163571,32.4812444 19.9306148,32.348129 C19.9454005,32.2097521 19.9704834,32.0824243 20.0050714,31.9695655 C20.0411908,31.8500247 20.0984327,31.7692084 20.1754451,31.7288676 L20.2368903,31.7062285 L20.2590689,31.7014931 Z M39.5320098,31.6588489 C39.7292407,31.6588489 39.8427739,31.8827248 39.8802662,31.9566486 C39.9629078,32.1197545 40.0389486,32.3302136 40.1060124,32.5819754 C40.1722841,32.8318957 40.231955,33.1094388 40.2831769,33.4069754 C40.3349269,33.7047752 40.3795481,34.0012596 40.4170404,34.2877471 C40.4489881,34.5342474 40.4743351,34.7670679 40.4930812,34.9825255 C40.5493198,34.7917969 40.6158555,34.600279 40.6913682,34.4106027 C40.7932841,34.155684 40.9239792,33.9278619 41.0800213,33.7339764 C41.2513772,33.5198342 41.456529,33.4114477 41.6886119,33.4114477 C41.9043249,33.4114477 42.0886182,33.4798469 42.2362114,33.6148039 C42.3721871,33.739764 42.4822879,33.8886639 42.5633453,34.0575574 C42.6425545,34.2227679 42.6977369,34.3985013 42.7273083,34.5797592 C42.7563517,34.7591757 42.7706093,34.9041295 42.7706093,35.0227758 C42.7706093,35.1658881 42.7426221,35.3655612 42.6840073,35.6333705 C42.6267126,35.8959184 42.5419588,36.1584662 42.4321221,36.4133849 C42.3204371,36.6727758 42.1802369,36.9021763 42.0149537,37.0957988 C41.8338287,37.3078364 41.6157394,37.4154337 41.3664945,37.4154337 C41.2400239,37.4154337 41.1399562,37.3914939 41.060483,37.3422991 C40.982858,37.2952089 40.9216029,37.231545 40.879358,37.1542012 C40.8402815,37.0829082 40.8144065,37.0058275 40.8033172,36.9248007 C40.79302,36.8529815 40.7882675,36.7806362 40.7882675,36.7082908 C40.7882675,36.6180564 40.8220634,36.5375558 40.8859588,36.4749442 C40.9346724,36.4279855 40.9952675,36.3984883 41.0669642,36.3866747 L41.1423325,36.3807637 L41.171904,36.3807637 L41.4721068,36.5451849 L41.4879486,36.64489 C41.6624728,36.4549506 41.8047853,36.2413345 41.9119818,36.0074617 C42.0492777,35.7075574 42.1187177,35.4026547 42.1187177,35.1009088 C42.1187177,34.9450375 42.0962916,34.7893141 42.0519964,34.6361804 L42.000432,34.4840003 L41.9719167,34.4100765 C41.9642598,34.3961336 41.956867,34.3811384 41.948946,34.365354 C41.922279,34.3130022 41.8913874,34.2582828 41.8560073,34.2017219 C41.8216833,34.1475287 41.7876233,34.0993862 41.7535634,34.0586097 C41.7427381,34.0457191 41.732705,34.0357223 41.724256,34.02783 C41.6318453,34.0825494 41.5505239,34.1740992 41.482668,34.3011639 C41.3934256,34.468479 41.3142165,34.6660475 41.2466246,34.8886081 C41.1777126,35.1143256 41.1151374,35.3537229 41.0596909,35.6004863 C41.0039805,35.8480389 40.9443096,36.0813855 40.8827904,36.2939493 C40.8196871,36.5094069 40.7513032,36.6906649 40.6784307,36.8329879 C40.5876042,37.0121413 40.4701106,37.1029018 40.3301744,37.1029018 C40.2142649,37.1029018 40.0584869,37.0450255 39.9739971,36.7698501 C39.9203989,36.595169 39.8813223,36.3636639 39.8572955,36.0816486 C39.8337968,35.8059471 39.8126744,35.4915737 39.7944562,35.140633 C39.775446,34.7925861 39.7498351,34.433227 39.7176233,34.0730788 C39.6854116,33.7142459 39.6315494,33.3604114 39.5584129,33.0210459 C39.4863325,32.6861527 39.3809843,32.3817761 39.2463287,32.1168607 C39.240256,32.1079161 39.2286386,32.0879225 39.2175494,32.0652982 C39.2009154,32.0318878 39.1916744,31.9974251 39.1916744,31.9640147 C39.1916744,31.8793048 39.2270545,31.8032765 39.2935902,31.7440848 C39.3574856,31.6872608 39.4377509,31.6588489 39.5320098,31.6588489 Z M45.6238825,33.3446269 C45.7854693,33.3446269 45.9415114,33.3922433 46.0862001,33.4856346 C46.222968,33.5750797 46.3433659,33.6874123 46.4444897,33.8200016 C46.5440292,33.9512755 46.6224463,34.0904416 46.6773647,34.2335539 C46.7343953,34.3824538 46.7618545,34.5092554 46.7618545,34.6210619 C46.7618545,34.7381298 46.7362435,34.8694037 46.6852856,35.0117267 C46.6348557,35.1516821 46.5635675,35.2855867 46.4737971,35.4089684 C46.3816504,35.5352439 46.2646848,35.6431043 46.1258047,35.7293925 C45.938079,35.8459343 45.7078443,35.8906569 45.4718009,35.8496173 C45.4831542,35.88408 45.4958277,35.9219627 45.5095573,35.962213 C45.5536504,36.0934869 45.610417,36.2250239 45.6774807,36.3536671 C45.7421682,36.4770488 45.8205853,36.5862245 45.9100917,36.6780373 C46.0553085,36.8272003 46.2459386,36.8240434 46.3560394,36.7193399 C46.4246874,36.6543607 46.4880547,36.5814892 46.5440292,36.5020408 C46.6071325,36.4133849 46.6699718,36.3326212 46.7330751,36.2592235 C46.8368392,36.1382095 46.9485241,36.1129544 47.0240369,36.1129544 C47.3524909,36.1129544 47.3781019,36.3294643 47.3781019,36.396022 C47.3781019,36.50967 47.3329527,36.6285794 47.2434463,36.7490673 C47.1626529,36.8577168 47.0639055,36.9584742 46.9495802,37.0497608 C46.835255,37.1407844 46.7095764,37.2189174 46.576769,37.2817921 C46.4357767,37.3483498 46.2987448,37.3820233 46.1698978,37.3820233 C45.8807843,37.3820233 45.6407805,37.3009965 45.4567511,37.1418367 C45.2822269,36.9905692 45.1409705,36.8056282 45.0364144,36.591486 C44.9347626,36.3831314 44.8563455,36.1668846 44.8038034,35.9485332 C44.7756402,35.8327806 44.7484157,35.7267326 44.7218953,35.6302331 L44.6826134,35.492626 L44.5637996,35.2882175 L44.6026121,35.2269212 L44.5960114,35.204823 L44.6113251,35.2132414 L44.6675636,35.1235332 C44.6683557,35.0077806 44.6731083,34.8625638 44.6818213,34.6878827 C44.6910624,34.4908402 44.7232741,34.2940609 44.7768723,34.1041215 C44.8323187,33.9073422 44.9220892,33.7334503 45.0445994,33.586918 C45.179255,33.4261798 45.3738455,33.3446269 45.6238825,33.3446269 Z M29.2394365,33.3446269 C29.4012872,33.3446269 29.5570653,33.3922433 29.7017541,33.4856346 C29.8385219,33.5750797 29.9589199,33.6874123 30.0600436,33.8200016 C30.1595832,33.9512755 30.2380003,34.0904416 30.2929186,34.2335539 C30.3499492,34.3824538 30.3774084,34.5092554 30.3774084,34.6210619 C30.3774084,34.7381298 30.3517974,34.8694037 30.3008395,35.0117267 C30.2504097,35.1516821 30.1791214,35.2855867 30.089351,35.4089684 C29.9972043,35.5352439 29.8802388,35.6431043 29.7416227,35.7293925 C29.5536329,35.8459343 29.3236622,35.8906569 29.0873548,35.8496173 C29.0987082,35.88408 29.1113816,35.9219627 29.1251112,35.962213 C29.1694684,36.0934869 29.2259709,36.2250239 29.2930347,36.3536671 C29.3577222,36.4770488 29.4361393,36.5862245 29.5256457,36.6780373 C29.6711265,36.8272003 29.8614926,36.8240434 29.9715934,36.7193399 C30.0402413,36.6543607 30.1036087,36.5814892 30.1598472,36.5020408 C30.2226865,36.4133849 30.2855258,36.3326212 30.3486291,36.2592235 C30.4523931,36.1382095 30.5640781,36.1129544 30.6395908,36.1129544 C30.9680449,36.1129544 30.9936559,36.3294643 30.9936559,36.396022 C30.9936559,36.50967 30.9485066,36.6285794 30.8590003,36.7490673 C30.7782069,36.8577168 30.6794594,36.9584742 30.5651342,37.0497608 C30.4508089,37.1407844 30.3253944,37.2189174 30.192323,37.2817921 C30.0513306,37.3483498 29.9142987,37.3820233 29.7854518,37.3820233 C29.4963383,37.3820233 29.2563344,37.3009965 29.0723051,37.1418367 C28.8977809,36.9905692 28.7565245,36.8056282 28.6519684,36.591486 C28.5503166,36.3831314 28.4718995,36.1668846 28.4193574,35.9485332 C28.3913702,35.8327806 28.364087,35.7267326 28.3375079,35.6302331 L28.2981673,35.492626 L28.1796176,35.2882175 L28.2181661,35.2269212 L28.2115653,35.204823 L28.2268791,35.2132414 L28.2831176,35.1235332 C28.2839097,35.0077806 28.2886622,34.8625638 28.2973753,34.6878827 C28.3066163,34.4908402 28.3388281,34.2940609 28.3924263,34.1041215 C28.4478727,33.9073422 28.5376431,33.7334503 28.6601533,33.586918 C28.7948089,33.4261798 28.9893995,33.3446269 29.2394365,33.3446269 Z M22.0413547,33.3446269 C22.2032055,33.3446269 22.3589835,33.3922433 22.5036723,33.4856346 C22.6404402,33.5750797 22.7608381,33.6874123 22.8619619,33.8200016 C22.9615014,33.9512755 23.0399185,34.0904416 23.0948369,34.2335539 C23.1518675,34.3824538 23.1793267,34.5092554 23.1793267,34.6210619 C23.1793267,34.7381298 23.1537157,34.8694037 23.1027578,35.0117267 C23.0523279,35.1516821 22.9810397,35.2855867 22.8912693,35.4089684 C22.7991226,35.5352439 22.682157,35.6431043 22.5435409,35.7293925 C22.3555511,35.8459343 22.1253165,35.8906569 21.8892731,35.8496173 C21.9006264,35.88408 21.9132999,35.9219627 21.9270295,35.962213 C21.9713866,36.0934869 22.0278892,36.2250239 22.0949529,36.3536671 C22.1596404,36.4770488 22.2380575,36.5862245 22.3275639,36.6780373 C22.4727807,36.8272003 22.6634108,36.8240434 22.7735116,36.7193399 C22.8421596,36.6543607 22.9055269,36.5814892 22.9617654,36.5020408 C23.0246047,36.4133849 23.087444,36.3326212 23.1505473,36.2592235 C23.2543114,36.1382095 23.3659963,36.1129544 23.4415091,36.1129544 C23.7702272,36.1129544 23.7955741,36.3294643 23.7955741,36.396022 C23.7955741,36.50967 23.7504249,36.6285794 23.6609185,36.7490673 C23.5801251,36.8577168 23.4813777,36.9584742 23.3670524,37.0497608 C23.2527272,37.1407844 23.1273126,37.2189174 22.9942412,37.2817921 C22.8532489,37.3483498 22.716217,37.3820233 22.58737,37.3820233 C22.2982565,37.3820233 22.0582527,37.3009965 21.8742233,37.1418367 C21.6996991,36.9905692 21.5584427,36.8056282 21.4538866,36.591486 C21.3522348,36.3831314 21.2738177,36.1668846 21.2212756,35.9485332 C21.1932884,35.8327806 21.1660052,35.7267326 21.1394261,35.6302331 L21.1000856,35.492626 L20.9815358,35.2882175 L21.0200843,35.2269212 L21.0134835,35.204823 L21.0287973,35.2132414 L21.0850358,35.1235332 C21.0858279,35.0077806 21.0905805,34.8625638 21.0992935,34.6878827 C21.1085346,34.4908402 21.1407463,34.2940609 21.1943445,34.1041215 C21.2497909,33.9073422 21.3395614,33.7334503 21.4620716,33.586918 C21.5967272,33.4261798 21.7913177,33.3446269 22.0413547,33.3446269 Z M52.9508904,36.6710132 C53.0203305,36.6710132 53.0910907,36.6941637 53.1610588,36.7399386 C53.2119287,36.7734367 53.2500078,36.8105594 53.2746702,36.8511507 L53.3015231,36.9146197 C53.3123483,36.9577639 53.3189491,36.9909112 53.3189491,37.0209016 C53.3189491,37.1419157 53.2616545,37.2332023 53.1576264,37.2776618 C53.1079886,37.2990585 53.0521315,37.3135568 52.9908373,37.3208449 L52.8949159,37.3263305 L52.8450142,37.3152814 C52.7837591,37.2858171 52.7309529,37.246093 52.6879159,37.1971612 C52.6377501,37.1400741 52.610555,37.0708857 52.610555,36.9985403 C52.610555,36.7933426 52.7380818,36.6710132 52.9508904,36.6710132 Z M12.6728093,33.4001355 C12.7879267,33.4001355 12.9885899,33.4453842 13.0390198,33.7479193 C13.0680631,33.921022 13.0825848,34.1209582 13.0825848,34.3419404 C13.0825848,34.51478 13.0778323,34.6989318 13.0685912,34.8943957 C13.0590861,35.0861767 13.0545976,35.2776945 13.0545976,35.4692124 C13.0545976,35.6212691 13.0604062,35.7625399 13.0717596,35.8922353 C13.0932341,35.8131378 13.1148259,35.7286618 13.1363786,35.6387295 L13.1686588,35.499729 L13.3017302,34.9133371 C13.3489917,34.7062978 13.4017978,34.5132015 13.4588284,34.3393096 C13.5177073,34.1585778 13.5884675,34.006258 13.6687328,33.8868224 C13.7614075,33.7481824 13.8723004,33.6676818 13.998771,33.647162 C14.0209496,33.6453205 14.0333591,33.6447943 14.0455045,33.6447943 C14.1598297,33.6447943 14.2562009,33.6887277 14.3243208,33.7723852 C14.3850478,33.8473613 14.4320453,33.9394372 14.464257,34.0465083 C14.4940925,34.1462133 14.5146869,34.2496014 14.52472,34.3529895 C14.5342251,34.4547991 14.5389777,34.5329321 14.5389777,34.5873884 C14.5389777,34.7007733 14.5368654,34.8123166 14.5321129,34.9217554 C14.5273603,35.0280373 14.5252481,35.1361607 14.5252481,35.2461256 C14.5252481,35.3587213 14.5289445,35.4684232 14.5366014,35.5754943 C14.5479547,35.5386639 14.559308,35.5005182 14.5706614,35.4605309 C14.6313884,35.2442841 14.6944917,35.0240912 14.7599713,34.8004783 C14.826243,34.5739716 14.9009636,34.3664063 14.9825491,34.1838329 C15.0562665,34.0169388 15.1477267,33.9000497 15.2551723,33.8354556 L15.3387264,33.7968511 L15.3733144,33.7855389 L15.4079024,33.7955357 C15.5473106,33.8360491 15.6468501,33.9373326 15.6959598,34.0886001 C15.7353004,34.2109295 15.7651358,34.3611448 15.7849381,34.5352997 C15.8034203,34.7044563 15.8155657,34.8959742 15.8205823,35.1040657 C15.8250708,35.3018973 15.8456652,35.5039381 15.8815733,35.7057159 C15.9172175,35.9038106 15.9758323,36.0976961 16.0560976,36.2829002 C16.1329305,36.4596859 16.2501601,36.6188457 16.404882,36.7559072 C16.4901639,36.8458785 16.5276562,36.9226961 16.5276562,36.9984614 C16.5276562,37.1205277 16.4669292,37.2128667 16.3610529,37.2520647 C16.3119432,37.2701291 16.2591958,37.2821136 16.2034364,37.2880961 L16.1176167,37.2925781 L16.0764279,37.2854751 C15.8588667,37.2026068 15.6877749,37.0739636 15.5676409,36.9029656 C15.4541078,36.7419643 15.3661856,36.5638632 15.3067787,36.3744499 C15.257933,36.2184471 15.2222889,36.058235 15.2009024,35.8964445 C15.1792519,35.9495855 15.1554892,36.0029895 15.1296142,36.0556043 C15.059118,36.200295 14.9722519,36.3265705 14.8708642,36.4312739 C14.7552187,36.5512357 14.6187149,36.6117427 14.4653131,36.6117427 C14.3285453,36.6117427 14.1410835,36.5562341 14.0230619,36.2918447 C13.9441167,36.1153221 13.8891983,35.9109136 13.860155,35.6851961 C13.851442,35.6196907 13.8443131,35.5544483 13.8385045,35.4899952 C13.7878106,35.6725686 13.7352685,35.8606665 13.6803501,36.0532366 C13.6233195,36.2552774 13.558104,36.4417969 13.4865517,36.6085858 C13.4139432,36.7780054 13.3402787,36.9208546 13.2671422,37.0337133 C13.1747315,37.1760364 13.0691193,37.2478555 12.9526818,37.2478555 C12.7110937,37.2478555 12.6192111,36.9287468 12.5891116,36.8237803 C12.5223119,36.591486 12.4692417,36.3092076 12.4314853,35.9848374 C12.393729,35.663624 12.367854,35.3245217 12.3538603,34.977264 C12.3433651,34.7185965 12.3367313,34.4850855 12.3340704,34.2802824 L12.3327379,34.0851802 L12.3327379,33.672154 C12.3327379,33.5879703 12.376567,33.5137835 12.4563042,33.4630102 C12.5217838,33.4214445 12.5946562,33.4001355 12.6728093,33.4001355 Z M24.3939467,33.4001355 C24.509064,33.4001355 24.7097273,33.4453842 24.7601571,33.7479193 C24.7892005,33.921022 24.8037222,34.1209582 24.8037222,34.3419404 C24.8037222,34.51478 24.7989696,34.6989318 24.7897286,34.8943957 C24.7802235,35.0861767 24.7757349,35.2776945 24.7757349,35.4692124 C24.7757349,35.6212691 24.7815436,35.7625399 24.7928969,35.8922353 C24.8143714,35.8131378 24.8359633,35.7286618 24.857516,35.6387295 L24.8897962,35.499729 L25.0228676,34.9133371 C25.0701291,34.7062978 25.1229352,34.5132015 25.1799658,34.3393096 C25.2388446,34.1585778 25.3096048,34.006258 25.3898702,33.8868224 C25.4825449,33.7481824 25.5934378,33.6676818 25.7199084,33.647162 C25.742087,33.6453205 25.7544964,33.6447943 25.7666418,33.6447943 C25.8809671,33.6447943 25.9773383,33.6887277 26.0454582,33.7723852 C26.1061852,33.8473613 26.1531827,33.9394372 26.1853944,34.0465083 C26.2152298,34.1462133 26.2358242,34.2496014 26.2458574,34.3529895 C26.2553625,34.4547991 26.2601151,34.5329321 26.2601151,34.5873884 C26.2601151,34.7007733 26.2580028,34.8123166 26.2532503,34.9217554 C26.2484977,35.0280373 26.2463855,35.1361607 26.2463855,35.2461256 C26.2463855,35.3587213 26.2500819,35.4684232 26.2577388,35.5754943 C26.2690921,35.5386639 26.2804454,35.5005182 26.2917987,35.4605309 C26.3525258,35.2442841 26.4156291,35.0240912 26.4811087,34.8004783 C26.5473804,34.5739716 26.622101,34.3664063 26.7036865,34.1838329 C26.7774038,34.0169388 26.868864,33.9000497 26.9763097,33.8354556 L27.0598638,33.7968511 L27.0944518,33.7855389 L27.1290398,33.7955357 C27.268448,33.8360491 27.3679875,33.9373326 27.4170972,34.0886001 C27.4564378,34.2109295 27.4862732,34.3611448 27.5060755,34.5352997 C27.5245577,34.7044563 27.5367031,34.8959742 27.5417196,35.1040657 C27.5462082,35.3018973 27.5668026,35.5039381 27.6027107,35.7057159 C27.6383548,35.9038106 27.6969696,36.0976961 27.7772349,36.2829002 C27.8540679,36.4596859 27.9712974,36.6188457 28.1260194,36.7559072 C28.2113013,36.8458785 28.2487936,36.9226961 28.2487936,36.9984614 C28.2487936,37.1205277 28.1880666,37.2128667 28.0821903,37.2520647 C28.0330806,37.2701291 27.9803332,37.2821136 27.9245738,37.2880961 L27.8387541,37.2925781 L27.7975653,37.2854751 C27.5800041,37.2026068 27.4089122,37.0739636 27.2887783,36.9029656 C27.1752452,36.7419643 27.087323,36.5638632 27.0279161,36.3744499 C26.9790704,36.2184471 26.9434263,36.058235 26.9220398,35.8964445 C26.9003893,35.9495855 26.8766265,36.0029895 26.8507515,36.0556043 C26.7802554,36.200295 26.6933893,36.3265705 26.5920015,36.4312739 C26.4763561,36.5512357 26.3398523,36.6117427 26.1864505,36.6117427 C26.0496827,36.6117427 25.8622209,36.5562341 25.7441992,36.2918447 C25.6652541,36.1153221 25.6103357,35.9109136 25.5812923,35.6851961 C25.5725793,35.6196907 25.5654505,35.5544483 25.5596418,35.4899952 C25.508948,35.6725686 25.4564059,35.8606665 25.4014875,36.0532366 C25.3444569,36.2552774 25.2792413,36.4417969 25.207689,36.6085858 C25.1350806,36.7780054 25.0614161,36.9208546 24.9882796,37.0337133 C24.8958689,37.1760364 24.7902566,37.2478555 24.6738191,37.2478555 C24.4322311,37.2478555 24.3403485,36.9287468 24.310249,36.8237803 C24.2434492,36.591486 24.1903791,36.3092076 24.1526227,35.9848374 C24.1148663,35.663624 24.0889913,35.3245217 24.0749977,34.977264 C24.0645025,34.7185965 24.0578687,34.4849375 24.0552078,34.2801714 L24.0538753,34.0851802 L24.0538753,33.672154 C24.0538753,33.5879703 24.0977043,33.5137835 24.1774416,33.4630102 C24.2429212,33.4214445 24.3157936,33.4001355 24.3939467,33.4001355 Z M11.3145038,33.366804 C11.3881684,33.366804 11.4599847,33.3839039 11.5278406,33.4183665 C11.6186671,33.4649306 11.6683048,33.5430636 11.6683048,33.6385595 C11.6683048,33.9442514 11.6590638,34.2488911 11.6400536,34.5443232 C11.6218355,34.8323892 11.6123304,35.1320305 11.6123304,35.4358809 C11.6123304,35.6794874 11.6419018,35.9275662 11.7002526,36.1740665 C11.7628278,36.4387189 11.7942474,36.6860085 11.7942474,36.9093583 C11.7942474,36.9809144 11.7757653,37.0519444 11.738537,37.1200805 C11.7108138,37.1721692 11.6403176,37.2592467 11.4824273,37.2592467 C11.3752309,37.2592467 11.2276378,37.2061057 11.1354911,36.9540808 C11.0774043,36.7964995 11.0285587,36.6136631 10.9905383,36.4116223 C10.9522538,36.2106338 10.927963,36.0117498 10.9184579,35.8212843 C10.9108538,35.6701746 10.9064604,35.557621 10.9050071,35.483893 L10.9044643,35.4358809 L10.9044643,34.8273908 C10.9044643,34.6792801 10.9115931,34.5232773 10.9258508,34.3651698 C10.9398444,34.2065362 10.9564783,34.0597409 10.9754885,33.9239947 C10.9958189,33.7779887 11.0259184,33.6606577 11.0681633,33.5646357 C11.1391875,33.4012667 11.2411033,33.366804 11.3145038,33.366804 Z M43.6911256,33.366804 C43.7647902,33.366804 43.8368705,33.3839039 43.9047264,33.4183665 C43.9952889,33.4649306 44.0449267,33.5430636 44.0449267,33.6385595 C44.0449267,33.9442514 44.0359496,34.2488911 44.0166754,34.5443232 C43.9984573,34.8323892 43.9889522,35.1320305 43.9889522,35.4358809 C43.9889522,35.6794874 44.0185236,35.9275662 44.0768744,36.1740665 C44.1394496,36.4387189 44.1708693,36.6860085 44.1708693,36.9093583 C44.1708693,36.9809144 44.1523871,37.0519444 44.1154228,37.1200805 C44.0874356,37.1721692 44.0169394,37.2592467 43.8593131,37.2592467 C43.7521167,37.2592467 43.6042596,37.2061057 43.5121129,36.9540808 C43.4542902,36.7964995 43.4051805,36.6136631 43.3674241,36.4116223 C43.3288756,36.2106338 43.3045848,36.0117498 43.2950797,35.8212843 C43.2874756,35.6701746 43.2830822,35.557621 43.2816289,35.483893 L43.2810861,34.8273908 C43.2810861,34.6792801 43.288479,34.5232773 43.3024726,34.3651698 C43.3164662,34.2065362 43.3333642,34.0597409 43.3521103,33.9239947 C43.3724407,33.7779887 43.4025402,33.6606577 43.4447851,33.5646357 C43.5158093,33.4012667 43.6179892,33.366804 43.6911256,33.366804 Z M18.4899582,33.8127671 C18.3320679,34.0032326 18.2034849,34.2065888 18.1071138,34.4178372 C18.0030857,34.6443439 17.9207082,34.8797951 17.8620934,35.1173509 C17.8032145,35.3554329 17.764138,35.6006178 17.7459199,35.8458028 C17.7337745,36.0106625 17.7255015,36.1745868 17.7213357,36.3355491 L17.7181967,36.5745177 L17.7181967,36.7165776 C17.7604416,36.7560387 17.8098153,36.7933952 17.8657898,36.8273318 C17.9270449,36.8646883 17.9964849,36.8831035 18.0785985,36.8831035 C18.2177426,36.8831035 18.3228268,36.8228595 18.4091648,36.6944794 C18.5092324,36.5453165 18.5889696,36.3685308 18.6462643,36.1688576 C18.7048791,35.963923 18.7460679,35.757673 18.7685105,35.5569475 C18.7912171,35.352276 18.8028344,35.206533 18.8028344,35.1231386 C18.8028344,35.0723653 18.7980819,34.9702926 18.7888408,34.8174466 C18.7798638,34.6674944 18.7595334,34.5109654 18.7281138,34.3533841 C18.6972222,34.1994858 18.6528651,34.0595305 18.5963625,33.9379903 C18.5625666,33.865908 18.5266584,33.8235531 18.4899582,33.8127671 Z M53.0185087,32.0332557 C53.0689913,32.0641932 53.1323164,32.1102838 53.1556272,32.177454 L53.1647816,32.2318766 L53.1647816,34.2414987 C53.1647816,34.7333813 53.1858711,35.2341426 53.2276044,35.7360138 L53.2762026,36.2379672 L53.2809551,36.2847943 L53.2521758,36.3218878 C53.2060364,36.3808821 53.1404413,36.4293699 53.0536082,36.469016 L52.9596298,36.5057765 L52.9416758,36.511301 L52.9229296,36.511301 C52.7061605,36.511301 52.6369844,36.2353364 52.6142778,36.1445759 C52.5659602,35.9538473 52.530052,35.7281298 52.5062893,35.4745265 C52.4827906,35.2232908 52.4685329,34.960743 52.4637804,34.6955644 C52.4599783,34.4834216 52.4576971,34.3061307 52.4569367,34.1632879 L52.4566515,32.2318766 C52.4566515,32.1342761 52.5105138,32.055617 52.607677,32.0103683 C52.7465571,31.9459152 52.8532255,31.9319723 53.0185087,32.0332557 Z M22.0389784,33.977846 C21.9903968,34.0059949 21.9518483,34.0501913 21.9217489,34.1128029 C21.8792399,34.2004066 21.8470282,34.2982701 21.8259057,34.4034997 C21.8037272,34.5124123 21.7902616,34.6207988 21.7860371,34.7262915 C21.7812846,34.8359933 21.7789083,34.927543 21.7789083,35.0006776 C21.7789083,35.0843351 21.7965983,35.1545759 21.8327705,35.2145568 C21.862606,35.265067 21.9550167,35.2755899 22.0270971,35.2755899 C22.112907,35.2755899 22.1786506,35.2566486 22.2277603,35.2169244 C22.2845269,35.1719388 22.3265078,35.119324 22.3566073,35.0567124 C22.389083,34.9891024 22.4115256,34.9151786 22.423671,34.8375717 C22.4368726,34.7541773 22.4434733,34.6810427 22.4434733,34.6210619 C22.4434733,34.5697624 22.4347603,34.5024155 22.4178624,34.4211256 C22.4014925,34.3429927 22.3745614,34.2688058 22.3381251,34.2011958 C22.3038011,34.1372688 22.2573318,34.0814971 22.1997731,34.0359853 C22.156208,34.0009965 22.1034019,33.9820552 22.0389784,33.977846 Z M29.2370602,33.977846 C29.1884786,34.0059949 29.1499301,34.0501913 29.1198306,34.1128029 C29.0773217,34.2004066 29.0451099,34.2982701 29.0239875,34.4034997 C29.0018089,34.5124123 28.9883434,34.6207988 28.9841189,34.7262915 C28.9793663,34.8359933 28.9769901,34.927543 28.9769901,35.0006776 C28.9769901,35.0843351 28.9946801,35.1545759 29.0308523,35.2145568 C29.0606878,35.265067 29.1530985,35.2755899 29.2251788,35.2755899 C29.3109888,35.2755899 29.3767324,35.2566486 29.4258421,35.2169244 C29.4826087,35.1719388 29.5245895,35.119324 29.554689,35.0567124 C29.5871648,34.9891024 29.6096074,34.9151786 29.6217528,34.8375717 C29.6349543,34.7541773 29.6415551,34.6810427 29.6415551,34.6210619 C29.6415551,34.5697624 29.6328421,34.5024155 29.6159441,34.4211256 C29.5995742,34.3429927 29.5726431,34.2688058 29.5362069,34.2011958 C29.5018829,34.1372688 29.4554135,34.0814971 29.3978548,34.0359853 C29.3542898,34.0009965 29.3014837,33.9820552 29.2370602,33.977846 Z M45.6215062,33.977846 C45.5729246,34.0059949 45.5343761,34.0501913 45.5042767,34.1128029 C45.4617677,34.2004066 45.429556,34.2982701 45.4084335,34.4034997 C45.386255,34.5124123 45.3727894,34.6207988 45.3685649,34.7262915 C45.3638124,34.8359933 45.3614361,34.927543 45.3614361,35.0006776 C45.3614361,35.0843351 45.3791261,35.1545759 45.4152983,35.2145568 C45.4451338,35.265067 45.5375445,35.2755899 45.6093608,35.2755899 C45.6954348,35.2755899 45.7611784,35.2566486 45.8102881,35.2169244 C45.8670547,35.1719388 45.9090356,35.119324 45.938871,35.0567124 C45.9716108,34.9891024 45.9937894,34.9151786 46.0061989,34.8375717 C46.0194004,34.7541773 46.0260011,34.6810427 46.0260011,34.6210619 C46.0260011,34.5697624 46.0172881,34.5024155 46.0003902,34.4211256 C45.9837562,34.3429927 45.9570892,34.2688058 45.9206529,34.2011958 C45.886329,34.1372688 45.8398596,34.0814971 45.7823009,34.0359853 C45.7387358,34.0009965 45.6856657,33.9820552 45.6215062,33.977846 Z M11.4263208,32.1611623 C11.4976091,32.1611623 11.5675772,32.1853651 11.6341129,32.2332446 C11.7318042,32.3032223 11.7523986,32.380566 11.7523986,32.4329177 C11.7523986,32.5002647 11.7283718,32.5981282 11.6143106,32.6823119 C11.5332532,32.7417666 11.4418986,32.771757 11.3423591,32.771757 C11.2087596,32.771757 11.1152927,32.7341374 11.0643348,32.6599506 C11.0370517,32.6197879 11.0185695,32.57413 11.0092795,32.5236003 L11.0022876,32.4442299 L11.0022876,32.3216374 L11.0458527,32.2869117 C11.1506728,32.2035172 11.2787277,32.1611623 11.4263208,32.1611623 Z M43.8029426,32.1611623 C43.8742309,32.1611623 43.944463,32.1853651 44.0107347,32.2332446 C44.1086901,32.3032223 44.1292844,32.380566 44.1292844,32.4329177 C44.1292844,32.5002647 44.1049936,32.5981282 43.9909324,32.6823119 C43.910139,32.7417666 43.8185204,32.771757 43.7189809,32.771757 C43.5853814,32.771757 43.4921786,32.7341374 43.4409566,32.6599506 C43.4136735,32.6197879 43.3951913,32.57413 43.3859014,32.5236003 L43.3789094,32.4442299 L43.3789094,32.3216374 L43.4224745,32.2869117 C43.5272946,32.2035172 43.6556135,32.1611623 43.8029426,32.1611623 Z M16.2844577,3.34598533 C16.8067102,3.34598533 17.3318671,3.38360491 17.8454066,3.45805485 C19.2817332,3.66667251 20.2845214,4.17493144 20.8260482,4.96862564 C21.2260546,5.55501754 21.3493569,6.28820472 21.1727204,7.03296716 C20.9530469,7.96913912 20.3519123,8.47140106 19.3847251,8.52725135 L19.1990916,8.53248884 C18.771626,8.53248884 18.2683837,8.45014668 17.7028301,8.28809311 C17.2415686,8.15550383 16.7343658,8.08841996 16.1954793,8.08841996 C14.4035979,8.08841996 11.9584195,8.89321494 10.1882918,11.1014738 L9.99445638,11.3526419 L14.9088582,11.3526419 C17.2814372,11.3526419 17.4358952,12.7553524 17.4939819,13.2836049 C17.5327944,13.6266534 17.3661911,14.0470456 17.0601796,14.3895679 C16.649458,14.8494432 16.0348479,15.1207583 15.3147808,15.1646076 L15.1158582,15.1708976 L8.28353801,15.1848406 C8.2360125,15.3947736 8.19244745,15.6139142 8.15363495,15.8385794 L8.12459158,16.2378928 L8.10188495,16.6314844 L8.08472296,16.929021 L8.07960737,16.9960063 L8.0746898,17.0623996 L13.1287638,17.0610842 C14.9899156,17.0645041 15.2550023,18.2533355 15.2922306,18.6174298 C15.3503173,19.1840912 15.1676082,19.7491741 14.7908365,20.1679879 C14.4892079,20.5028986 13.9251493,20.899226 12.9232781,20.9563561 L12.7018263,20.9632605 L8.24472551,20.9632605 C8.80401343,22.8346272 10.0800117,23.8182164 12.0429105,23.8911088 L12.2817536,23.8954831 C13.6573531,23.89522 15.347677,23.4351036 16.8043339,22.6642969 C17.1008403,22.5072417 17.4395916,22.4206904 17.7577485,22.4206904 C18.2934666,22.4206904 19.228399,22.6661384 19.4710431,24.3100877 C19.5573811,24.8912181 19.3274105,25.5170711 18.8054219,26.1197736 C17.5943452,27.5184011 15.0607666,28.5870556 12.8125369,28.6703102 L12.5331107,28.6755373 L12.4135048,28.674485 C10.1481222,28.6381808 7.97937474,27.9602392 6.30753291,26.7658833 C4.48107715,25.4610842 3.29454649,23.5764467 2.85403378,21.29227 L2.7961898,20.9632605 L2.44159668,20.9632605 C1.6568977,20.9635236 1.01266301,20.7012388 0.610808418,20.2250749 C0.29687602,19.8530883 0.163276531,19.3750829 0.244069898,18.9136511 C0.447492283,17.7475231 1.19945279,17.1274709 2.48048331,17.068381 L2.68714515,17.0637149 L2.81440791,17.0637149 C2.86034923,16.7372401 2.91077908,16.4357573 2.96780969,16.146639 C3.00952653,15.940389 3.05523316,15.7325021 3.10563367,15.5193927 L3.18484286,15.1953635 L2.3951273,15.196942 C0.370540561,15.196942 0.0259806122,14.0896636 0.000633673465,13.429874 C-0.0144160714,12.9905405 0.216874745,12.4701802 0.604207653,12.0708339 C0.895609439,11.7703595 1.3908997,11.4172741 2.13827731,11.3605131 L2.34839388,11.3526419 L4.57602015,11.3526419 C7.01460689,6.41000797 11.4896617,3.34598533 16.2844577,3.34598533 Z M34.7277616,6.73524633 C37.8990333,7.57655692 36.5456124,12.473679 33.3730205,11.6318423 C29.0537437,10.4858921 24.648129,14.3391366 24.6499772,18.7929791 C24.6515614,22.1242849 29.3370486,24.8718296 32.0306889,22.3757836 C34.4312552,20.1514931 38.0413458,23.7364023 35.6344427,25.9664804 C30.2788458,30.9288449 20.7146009,27.4325917 19.6745843,20.257512 C18.4740371,11.9759431 26.7300103,4.61329161 34.7277616,6.73524633 Z M58.9877656,0.26296875 C59.0928497,0.26296875 59.1945015,0.268756378 59.2914008,0.278753189 C59.9541176,0.347941645 61.4662209,0.795693559 61.2243689,3.45642379 C61.1977018,3.76474649 61.1208689,4.47004783 61.0165768,5.40738042 C64.2316776,4.43453284 65.2175679,4.31194037 65.6777732,4.31194037 C65.7752005,4.31194037 65.8636508,4.317728 65.9460283,4.32956633 C67.6236788,4.43321747 68.6676559,5.55838489 68.608777,7.20996333 C68.5644199,8.56058514 67.2907362,9.71995217 66.2792349,9.71995217 C66.1942171,9.71995217 66.1110474,9.71179688 66.0313102,9.69574936 C65.9418038,9.67838648 65.6862222,9.63603157 65.3099786,9.63603157 C64.9580258,9.63603157 64.5984161,9.67391422 64.2707541,9.74573342 C63.6302158,9.88621492 62.7710602,10.1663887 61.7761929,10.4904959 C61.3481992,10.6301881 60.8784888,10.7832972 60.3826393,10.9393001 C60.1521274,12.9246668 59.9335298,14.7576071 59.8330157,15.5695162 L59.8181418,15.6891008 L59.7909467,15.9240258 C59.6718689,16.9757956 59.4247362,19.164308 57.0822566,19.3453029 C57.0191533,19.3505644 56.955786,19.3529321 56.8937388,19.3529321 C56.2951814,19.3529321 55.7753051,19.1201116 55.3908765,18.6797258 L55.3830894,18.6699071 C54.4112601,24.2217627 50.5264145,27.9175845 45.7639244,28.0486583 C40.0392126,28.2062396 35.7632369,23.3772537 36.2313631,17.8229727 C36.7575761,11.5862779 40.8727573,6.86041693 46.7445341,6.52052535 C48.9731797,6.39160265 50.9068724,7.15236988 52.3951669,8.45578558 C53.2484645,8.10752135 54.1704402,7.74896749 55.1190158,7.39594129 L55.7045449,7.1799729 L56.1544531,3.34461735 C56.6315564,0.663104273 58.1344186,0.26296875 58.9877656,0.26296875 Z M46.9427715,11.760388 L46.7445341,11.7672728 C43.6199958,11.9627368 41.5983134,15.7733634 41.4979818,18.5793104 C41.4124358,20.9772298 42.768233,23.0355206 45.7639244,22.8019109 C48.7033772,22.5727734 50.5795787,18.8897377 50.5199078,15.8393949 C50.4777429,13.6891159 49.1256705,11.8638504 47.1371711,11.7645615 L46.9427715,11.760388 Z M55.778305,17.657949 L55.8160489,17.7454719 C55.8174769,17.7485433 55.8189119,17.7516085 55.8203537,17.7546674 C55.8255699,17.7649725 55.8302066,17.7746065 55.8349137,17.7841751 C55.8479518,17.8113316 55.8619675,17.8380923 55.8765726,17.8642716 C55.8904915,17.8887366 55.9044101,17.9123136 55.9188425,17.9353601 C55.9259684,17.9471066 55.9338414,17.9592918 55.9418634,17.9713192 C56.0004834,18.0588681 56.0661919,18.137448 56.1405091,18.2055687 L56.1724549,18.2338079 L56.1724549,18.2338079 L56.1842107,18.2435817 C56.1950962,18.2525578 56.2061539,18.2613199 56.2173863,18.2698618 C56.2359058,18.2839797 56.2548219,18.2974061 56.2742179,18.3102121 C56.285278,18.3174877 56.2963918,18.3245265 56.3076607,18.3313623 C56.3293513,18.3445388 56.3516726,18.3569711 56.3745844,18.3686124 C56.3886495,18.3757494 56.4029901,18.3826239 56.417558,18.3891898 C56.4400615,18.3993351 56.4629762,18.4086882 56.486438,18.4172834 C56.5907346,18.4555253 56.7061749,18.4788117 56.8334669,18.4843967 L56.8667311,18.4854462 L56.8667311,18.4854462 C56.9162833,18.4863142 56.9647599,18.4847787 57.0148496,18.4807629 C58.7651085,18.3455429 58.8184427,16.6918599 58.9541545,15.5816877 C59.0515818,14.8050933 59.3135001,12.6094778 59.5830754,10.2791685 C61.469046,9.70251036 63.0075524,9.13453364 64.0840052,8.89881936 C64.9413126,8.71098453 65.755319,8.7578117 66.2028509,8.84567841 L66.2782191,8.85273005 L66.2782191,8.85273005 L66.362295,8.84609395 C66.8606982,8.77076063 67.7096875,8.06299178 67.738981,7.17936783 C67.7804338,6.02052695 67.1039874,5.25366629 65.850106,5.19289621 L65.7822484,5.18336065 L65.7822484,5.18336065 L65.7017091,5.17926529 C64.9497515,5.16695348 62.8081541,5.75225001 60.2954558,6.53683683 L60.0039402,6.62822784 L60.0039402,6.62822784 C60.1789925,5.06846221 60.3199848,3.81096859 60.3572131,3.37821189 C60.5058624,1.74478555 59.9168101,1.21600686 59.2018152,1.14155692 C59.1508384,1.13629544 59.0979622,1.13258959 59.0435757,1.13104451 L58.9609117,1.13042311 C58.2634157,1.14001035 57.3603148,1.53449549 57.0114172,3.49580596 L56.5068547,7.81206075 C56.0258958,7.98516902 55.5509268,8.16003841 55.0871501,8.33446124 C54.9351691,8.39162012 54.784386,8.44873258 54.6349879,8.50571939 C54.3696704,8.60692201 54.1084655,8.70782843 53.8526658,8.80790143 L53.6696782,8.8797095 L53.6696782,8.8797095 L53.6048018,8.90527537 C53.4230325,8.97698465 53.2442453,9.04818716 53.0688256,9.11871944 C52.7500095,9.24691767 52.4442098,9.37211254 52.1516698,9.49415577 C50.9389772,9.99478555 50.8233318,10.6711488 50.9656443,11.4088082 C51.1327756,12.265114 51.8678369,12.9930397 52.8447501,12.6110563 C53.3637129,12.4087939 54.2321315,12.0801221 55.3039107,11.6997947 C55.4433312,11.6502546 55.5863385,11.5998917 55.7325374,11.5487745 L55.7782621,11.5328074 L55.7782621,11.5328074 L56.0799172,11.4280126 L56.0799172,11.4280126 C56.0799172,11.4280126 56.0804453,11.4306433 56.0849338,11.4316956 L55.5999096,15.5816877 C55.5232524,16.1260752 55.512122,17.0082317 55.7777227,17.6576138 L55.778305,17.657949 Z" id="Jaune" fill="#0066CC"></path>
                        </g>
                    </g>
                </g>
            </g>
        </g>
    </g>
</svg>